<?xml version="1.0" encoding="UTF-8"?>
<!DOCTYPE svg PUBLIC "-//W3C//DTD SVG 1.1//EN" "http://www.w3.org/Graphics/SVG/1.1/DTD/svg11.dtd">
<!-- Creator: CorelDRAW -->
<svg xmlns="http://www.w3.org/2000/svg" xml:space="preserve" width="2058px" height="236px" version="1.1" style="shape-rendering:geometricPrecision; text-rendering:geometricPrecision; image-rendering:optimizeQuality; fill-rule:evenodd; clip-rule:evenodd"
viewBox="0 0 1950.05 223.38"
 xmlns:xlink="http://www.w3.org/1999/xlink"
 xmlns:xodm="http://www.corel.com/coreldraw/odm/2003">
 <defs>
  <style type="text/css">
   <![CDATA[
    .str3 {stroke:#8CC8DC;stroke-width:5.59;stroke-linejoin:bevel;stroke-miterlimit:22.9256}
    .str2 {stroke:white;stroke-width:5.59;stroke-linejoin:bevel;stroke-miterlimit:22.9256}
    .str0 {stroke:#FEFEFE;stroke-width:5.59;stroke-linecap:round;stroke-miterlimit:22.9256}
    .str1 {stroke:white;stroke-width:5.59;stroke-linecap:round;stroke-linejoin:bevel;stroke-miterlimit:22.9256}
    .fil0 {fill:none}
    .fil1 {fill:#8CC8DC}
   ]]>
  </style>
 </defs>
 <g id="Layer_x0020_1">
  <metadata id="CorelCorpID_0Corel-Layer"/>
  <path class="fil0 str0" d="M1462.02 219.12l-0.45 -210.72c-0.01,-2.44 1.49,-4.51 3.8,-5.3 2.31,-0.78 4.75,-0.03 6.24,1.9 48.76,63.77 97.98,149.18 146.75,212.95 1.48,1.93 3.92,2.68 6.24,1.9 2.31,-0.78 3.8,-2.86 3.8,-5.3 0,-66.21 0,-144.92 0,-211.13"/>
 </g>
 <g id="_0">
  <metadata id="CorelCorpID_1Corel-Layer"/>
  <path class="fil0 str1" d="M1947.25 3.1l-164.38 0"/>
  <path class="fil0 str1" d="M1866.95 219.43l0 -216.33"/>
  <path class="fil0 str2" d="M1288.82 111.39l-0.14 -5.56 -0.42 -5.49 -0.69 -5.4 -0.95 -5.33 -1.21 -5.23 -1.46 -5.13 -1.7 -5.02 -1.94 -4.91 -2.16 -4.79 -2.4 -4.67 -2.6 -4.53 -2.82 -4.39 -3.01 -4.24 -3.22 -4.08 -3.4 -3.93 -3.58 -3.76 -3.76 -3.58 -3.92 -3.4 -4.09 -3.21 -4.24 -3.02 -4.39 -2.82 -4.53 -2.6 -4.66 -2.39 -4.79 -2.17 -4.91 -1.94 -5.03 -1.7 -5.13 -1.46 -5.23 -1.21 -5.32 -0.95 -5.41 -0.69 -5.49 -0.42 -5.56 -0.14 -5.57 0.14 -5.48 0.42 -5.41 0.69 -5.33 0.95 -5.23 1.21 -5.13 1.46 -5.02 1.7 -4.91 1.94 -4.79 2.17 -4.67 2.39 -4.53 2.6 -4.39 2.82 -4.24 3.02 -4.08 3.21 -3.93 3.4 -3.76 3.58 -3.58 3.76 -3.4 3.93 -3.21 4.08 -3.02 4.24 -2.82 4.39 -2.6 4.53 -2.39 4.67 -2.17 4.79 -1.94 4.91 -1.7 5.02 -1.46 5.13 -1.21 5.23 -0.95 5.33 -0.69 5.4 -0.42 5.49 -0.14 5.56 0.14 5.57 0.42 5.48 0.69 5.42 0.95 5.32 1.21 5.23 1.46 5.13 1.7 5.03 1.94 4.91 2.17 4.78 2.39 4.67 2.6 4.53 2.82 4.39 3.02 4.24 3.21 4.09 3.4 3.92 3.58 3.76 3.76 3.58 3.93 3.4 4.08 3.22 4.24 3.01 4.39 2.82 4.53 2.6 4.67 2.39 4.79 2.17 4.91 1.94 5.02 1.7 5.13 1.46 5.23 1.21 5.33 0.95 5.41 0.69 5.48 0.42 5.57 0.14 5.56 -0.14 5.49 -0.42 5.41 -0.69 5.32 -0.95 5.23 -1.21 5.13 -1.46 5.03 -1.7 4.91 -1.94 4.79 -2.17 4.66 -2.39 4.53 -2.6 4.39 -2.82 4.24 -3.01 4.09 -3.22 3.92 -3.4 3.76 -3.58 3.58 -3.76 3.4 -3.92 3.22 -4.09 3.01 -4.24 2.82 -4.39 2.6 -4.53 2.4 -4.67 2.16 -4.78 1.94 -4.92 1.7 -5.02 1.46 -5.13 1.21 -5.23 0.95 -5.32 0.69 -5.42 0.42 -5.48 0.14 -5.57z"/>
  <path class="fil0 str1" d="M683.1 219.44l0 -209.62 0.01 -0.34 0.02 -0.33 0.03 -0.33 0.05 -0.32 0.07 -0.31 0.07 -0.3 0.09 -0.29 0.1 -0.29 0.11 -0.27 0.13 -0.27 0.13 -0.26 0.15 -0.25 0.15 -0.25 0.17 -0.23 0.17 -0.23 0.19 -0.22 0.19 -0.2 0.2 -0.2 0.21 -0.19 0.21 -0.18 0.22 -0.17 0.23 -0.16 0.23 -0.16 0.25 -0.14 0.24 -0.13 0.25 -0.13 0.26 -0.11 0.26 -0.1 0.26 -0.1 0.27 -0.08 0.27 -0.07 0.27 -0.06 0.27 -0.06 0.28 -0.04 0.28 -0.03 0.28 -0.02 0.28 -0.01 0.28 0 0.28 0.01 0.27 0.02 0.28 0.03 0.28 0.05 0.27 0.05 0.27 0.07 0.27 0.07 0.27 0.09 0.26 0.1 0.26 0.12 0.26 0.12 0.25 0.13 0.25 0.15 0.24 0.16 0.23 0.17 0.23 0.19 0.22 0.19 0.22 0.21 0.2 0.22 0.2 0.23 0.2 0.25 0.18 0.25 0.17 0.27 0.17 0.29 0.15 0.29 0.15 0.31 88.42 208.27 0.13 0.26 0.12 0.26 0.14 0.24 0.15 0.24 0.15 0.22 0.16 0.22 0.16 0.21 0.17 0.21 0.18 0.19 0.19 0.19 0.18 0.17 0.2 0.17 0.2 0.16 0.2 0.16 0.21 0.14 0.21 0.14 0.22 0.12 0.22 0.12 0.23 0.11 0.23 0.11 0.23 0.09 0.23 0.09 0.48 0.14 0.48 0.12 0.49 0.08 0.49 0.05 0.5 0.01 0.49 -0.02 0.5 -0.05 0.48 -0.08 0.49 -0.12 0.47 -0.15 0.23 -0.09 0.23 -0.09 0.23 -0.11 0.23 -0.11 0.22 -0.12 0.21 -0.13 0.21 -0.14 0.21 -0.14 0.21 -0.16 0.19 -0.16 0.2 -0.17 0.18 -0.18 0.19 -0.19 0.17 -0.19 0.17 -0.2 0.17 -0.22 0.15 -0.22 0.15 -0.23 0.15 -0.23 0.13 -0.25 0.13 -0.25 0.12 -0.26 88.74 -208.14 0.14 -0.3 0.15 -0.3 0.16 -0.27 0.17 -0.27 0.18 -0.26 0.19 -0.24 0.19 -0.23 0.2 -0.22 0.22 -0.2 0.21 -0.2 0.23 -0.18 0.23 -0.17 0.23 -0.16 0.24 -0.15 0.25 -0.13 0.25 -0.12 0.26 -0.11 0.26 -0.1 0.26 -0.09 0.26 -0.08 0.27 -0.07 0.27 -0.05 0.27 -0.05 0.28 -0.03 0.27 -0.02 0.28 -0.01 0.27 -0.01 0.28 0.01 0.27 0.02 0.28 0.03 0.27 0.04 0.27 0.06 0.27 0.06 0.26 0.07 0.27 0.08 0.26 0.09 0.25 0.1 0.25 0.11 0.25 0.12 0.24 0.13 0.24 0.14 0.23 0.15 0.23 0.16 0.22 0.17 0.21 0.18 0.21 0.18 0.19 0.2 0.19 0.2 0.18 0.22 0.18 0.22 0.16 0.23 0.15 0.24 0.14 0.25 0.14 0.25 0.12 0.27 0.11 0.27 0.1 0.28 0.09 0.29 0.07 0.3 0.07 0.3 0.04 0.31 0.04 0.32 0.02 0.33 0.01 0.34 0 209.61"/>
  <path class="fil0 str1" d="M392.19 111.27l110.3 0"/>
  <path class="fil0 str1" d="M502.49 3.1l-99.48 0 -0.56 0.02 -0.55 0.04 -0.54 0.07 -0.53 0.09 -0.52 0.12 -0.52 0.15 -0.5 0.17 -0.49 0.19 -0.48 0.22 -0.47 0.24 -0.45 0.26 -0.44 0.28 -0.42 0.3 -0.41 0.32 -0.39 0.34 -0.38 0.36 -0.36 0.38 -0.34 0.39 -0.32 0.41 -0.3 0.42 -0.28 0.44 -0.26 0.46 -0.24 0.46 -0.22 0.48 -0.19 0.49 -0.17 0.51 -0.15 0.51 -0.12 0.52 -0.1 0.53 -0.06 0.54 -0.05 0.55 -0.01 0.56 0 194.7 0.01 0.55 0.05 0.55 0.06 0.54 0.1 0.53 0.12 0.53 0.15 0.51 0.17 0.5 0.19 0.49 0.22 0.48 0.24 0.47 0.26 0.45 0.28 0.44 0.3 0.42 0.32 0.41 0.34 0.4 0.36 0.37 0.38 0.36 0.39 0.34 0.41 0.32 0.42 0.3 0.44 0.29 0.45 0.26 0.47 0.23 0.48 0.22 0.49 0.2 0.5 0.16 0.52 0.15 0.52 0.12 0.53 0.1 0.54 0.07 0.55 0.04 0.56 0.01 107.03 0"/>
  <path class="fil0 str1" d="M2.8 219.44l0 -209.62 0.01 -0.34 0.02 -0.33 0.03 -0.33 0.05 -0.32 0.07 -0.31 0.07 -0.3 0.09 -0.29 0.1 -0.29 0.11 -0.27 0.13 -0.27 0.13 -0.26 0.15 -0.25 0.15 -0.25 0.17 -0.23 0.17 -0.23 0.18 -0.22 0.2 -0.2 0.2 -0.2 0.2 -0.19 0.22 -0.18 0.22 -0.17 0.23 -0.16 0.24 -0.16 0.23 -0.14 0.25 -0.13 0.25 -0.13 0.26 -0.11 0.26 -0.1 0.26 -0.1 0.27 -0.08 0.27 -0.07 0.27 -0.06 0.27 -0.06 0.28 -0.04 0.28 -0.03 0.28 -0.02 0.27 -0.01 0.28 0 0.28 0.01 0.28 0.02 0.28 0.03 0.28 0.05 0.27 0.05 0.27 0.07 0.27 0.07 0.27 0.09 0.26 0.1 0.26 0.12 0.26 0.12 0.25 0.13 0.24 0.15 0.24 0.16 0.24 0.17 0.23 0.19 0.22 0.19 0.21 0.21 0.21 0.22 0.2 0.23 0.19 0.25 0.19 0.25 0.17 0.27 0.17 0.29 0.15 0.29 0.15 0.31 88.42 208.27 0.13 0.26 0.12 0.26 0.14 0.24 0.15 0.24 0.15 0.22 0.16 0.22 0.16 0.21 0.17 0.21 0.18 0.19 0.18 0.19 0.19 0.17 0.2 0.17 0.2 0.16 0.2 0.16 0.21 0.14 0.21 0.14 0.22 0.12 0.22 0.12 0.23 0.11 0.22 0.11 0.24 0.09 0.23 0.09 0.47 0.14 0.49 0.12 0.49 0.08 0.49 0.05 0.5 0.01 0.49 -0.02 0.49 -0.05 0.49 -0.08 0.48 -0.12 0.48 -0.15 0.23 -0.09 0.23 -0.09 0.23 -0.11 0.22 -0.11 0.22 -0.12 0.22 -0.13 0.21 -0.14 0.21 -0.14 0.2 -0.16 0.2 -0.16 0.2 -0.17 0.18 -0.18 0.19 -0.19 0.17 -0.19 0.17 -0.2 0.17 -0.22 0.15 -0.22 0.15 -0.23 0.15 -0.23 0.13 -0.25 0.13 -0.25 0.12 -0.26 88.74 -208.14 0.14 -0.3 0.15 -0.3 0.16 -0.27 0.17 -0.27 0.18 -0.26 0.18 -0.24 0.2 -0.23 0.2 -0.22 0.21 -0.2 0.22 -0.2 0.22 -0.18 0.24 -0.17 0.23 -0.16 0.24 -0.15 0.25 -0.13 0.25 -0.12 0.26 -0.11 0.25 -0.1 0.27 -0.09 0.26 -0.08 0.27 -0.07 0.27 -0.05 0.27 -0.05 0.28 -0.03 0.27 -0.02 0.28 -0.01 0.27 -0.01 0.28 0.01 0.27 0.02 0.27 0.03 0.28 0.04 0.27 0.06 0.27 0.06 0.26 0.07 0.26 0.08 0.26 0.09 0.26 0.1 0.25 0.11 0.25 0.12 0.24 0.13 0.24 0.14 0.23 0.15 0.23 0.16 0.22 0.17 0.21 0.18 0.2 0.18 0.2 0.2 0.19 0.2 0.18 0.22 0.17 0.22 0.17 0.23 0.15 0.24 0.14 0.25 0.14 0.25 0.12 0.27 0.11 0.27 0.1 0.28 0.09 0.29 0.07 0.3 0.06 0.3 0.05 0.31 0.04 0.32 0.02 0.33 0.01 0.34 0 209.61"/>
  <path class="fil1 str3" d="M820.98 144.77l-21.94 -51.35 -0.33 -0.68 -0.35 -0.63 -0.39 -0.59 -0.41 -0.54 -0.21 -0.26 -0.23 -0.24 -0.23 -0.24 -0.23 -0.22 -0.24 -0.21 -0.24 -0.2 -0.25 -0.19 -0.25 -0.18 -0.26 -0.17 -0.26 -0.16 -0.27 -0.15 -0.27 -0.13 -0.27 -0.13 -0.27 -0.11 -0.28 -0.11 -0.28 -0.09 -0.28 -0.08 -0.29 -0.07 -0.28 -0.06 -0.29 -0.05 -0.29 -0.04 -0.28 -0.03 -0.29 -0.01 -0.29 -0.01 -0.29 0.01 -0.29 0.01 -0.29 0.03 -0.29 0.04 -0.29 0.05 -0.28 0.06 -0.28 0.07 -0.29 0.08 -0.28 0.09 -0.27 0.11 -0.28 0.11 -0.27 0.13 -0.27 0.13 -0.27 0.15 -0.26 0.16 -0.25 0.17 -0.26 0.18 -0.25 0.19 -0.24 0.2 -0.24 0.21 -0.23 0.22 -0.23 0.24 -0.22 0.24 -0.22 0.26 -0.41 0.54 -0.39 0.59 -0.35 0.63 -0.32 0.68 -21.94 51.35 -0.49 1.01 -0.42 1.04 -0.36 1.05 -0.29 1.07 -0.23 1.08 -0.16 1.09 -0.1 1.09 -0.03 1.1 0.03 1.1 0.1 1.09 0.16 1.09 0.23 1.08 0.29 1.07 0.36 1.05 0.42 1.04 0.49 1.01 5.62 11.92 5.75 13.73 11.05 27.53 0.3 0.68 0.33 0.63 0.36 0.59 0.39 0.54 0.2 0.26 0.21 0.24 0.22 0.24 0.22 0.22 0.22 0.21 0.23 0.2 0.23 0.19 0.24 0.18 0.24 0.17 0.25 0.16 0.25 0.15 0.25 0.13 0.25 0.13 0.26 0.11 0.26 0.11 0.26 0.09 0.27 0.08 0.27 0.07 0.26 0.06 0.27 0.05 0.27 0.04 0.27 0.03 0.28 0.01 0.27 0.01 0.27 -0.01 0.27 -0.01 0.27 -0.03 0.27 -0.04 0.27 -0.05 0.27 -0.06 0.26 -0.07 0.27 -0.08 0.26 -0.09 0.26 -0.11 0.26 -0.11 0.26 -0.13 0.25 -0.13 0.25 -0.15 0.24 -0.16 0.24 -0.17 0.24 -0.18 0.23 -0.19 0.23 -0.2 0.23 -0.21 0.22 -0.22 0.21 -0.24 0.21 -0.24 0.2 -0.26 0.39 -0.54 0.36 -0.59 0.33 -0.63 0.31 -0.68 11.04 -27.53 5.76 -13.73 5.62 -11.92 0.48 -1.01 0.43 -1.04 0.35 -1.05 0.3 -1.07 0.22 -1.08 0.17 -1.09 0.09 -1.09 0.04 -1.1 -0.04 -1.1 -0.09 -1.09 -0.17 -1.09 -0.22 -1.08 -0.3 -1.07 -0.35 -1.05 -0.43 -1.04 -0.48 -1.01z"/>
 </g>
</svg>
